<svg width="56" height="56" viewBox="0 0 56 56" fill="none" xmlns="http://www.w3.org/2000/svg">
<rect width="56" height="56" rx="8" fill="#34C759"/>
<path d="M44.6667 20.9584C44.1667 20.5695 43.6389 20.2084 43.0834 19.875C42.5278 19.5417 41.9445 19.25 41.3334 19V14.6667H16.3334C15.8612 14.6667 15.465 14.5067 15.145 14.1867C14.8262 13.8678 14.6667 13.4723 14.6667 13C14.6667 12.5278 14.8262 12.1317 15.145 11.8117C15.465 11.4928 15.8612 11.3334 16.3334 11.3334H41.3334C42.25 11.3334 43.035 11.6595 43.6884 12.3117C44.3406 12.965 44.6667 13.75 44.6667 14.6667V20.9584ZM13 38C12.5278 38 12.1323 37.84 11.8134 37.52C11.4934 37.2012 11.3334 36.8056 11.3334 36.3334V21.3334C11.3334 20.8612 11.4934 20.465 11.8134 20.145C12.1323 19.8262 12.5278 19.6667 13 19.6667H21.3334C21.8056 19.6667 22.2017 19.8262 22.5217 20.145C22.8406 20.465 23 20.8612 23 21.3334V36.3334C23 36.8056 22.8406 37.2012 22.5217 37.52C22.2017 37.84 21.8056 38 21.3334 38H13ZM35.0834 40.0834V33C34.8334 32.7778 34.6323 32.5206 34.48 32.2284C34.3267 31.9373 34.25 31.6389 34.25 31.3334C34.25 30.75 34.4584 30.2573 34.875 29.855C35.2917 29.4517 35.7778 29.25 36.3334 29.25C36.9167 29.25 37.41 29.4517 37.8134 29.855C38.2156 30.2573 38.4167 30.75 38.4167 31.3334C38.4167 31.6389 38.3545 31.9445 38.23 32.25C38.1045 32.5556 37.8889 32.8056 37.5834 33V40.0834C37.5834 40.4445 37.4656 40.7434 37.23 40.98C36.9934 41.2156 36.6945 41.3334 36.3334 41.3334C35.9723 41.3334 35.6734 41.2156 35.4367 40.98C35.2012 40.7434 35.0834 40.4445 35.0834 40.0834ZM32.5417 35.125C32.2917 35.375 31.9862 35.4789 31.625 35.4367C31.2639 35.3956 30.9723 35.2223 30.75 34.9167C30.4167 34.3612 30.1528 33.785 29.9584 33.1884C29.7639 32.5906 29.6667 31.9723 29.6667 31.3334C29.6667 29.4723 30.3195 27.8956 31.625 26.6034C32.9306 25.3123 34.5 24.6667 36.3334 24.6667C38.1945 24.6667 39.7706 25.3123 41.0617 26.6034C42.3539 27.8956 43 29.4723 43 31.3334C43 32 42.9095 32.6456 42.7284 33.27C42.5484 33.8956 42.2917 34.4445 41.9584 34.9167C41.7362 35.2223 41.4445 35.3956 41.0834 35.4367C40.7223 35.4789 40.4167 35.375 40.1667 35.125C39.9167 34.875 39.7845 34.5834 39.77 34.25C39.7567 33.9167 39.8334 33.5973 40 33.2917C40.1667 32.9862 40.2917 32.6667 40.375 32.3334C40.4584 32 40.5 31.6667 40.5 31.3334C40.5 30.1667 40.0973 29.1806 39.2917 28.375C38.4862 27.5695 37.5 27.1667 36.3334 27.1667C35.1667 27.1667 34.1806 27.5695 33.375 28.375C32.5695 29.1806 32.1667 30.1667 32.1667 31.3334C32.1667 31.6667 32.2156 32 32.3134 32.3334C32.41 32.6667 32.5417 32.9862 32.7084 33.2917C32.875 33.5973 32.9517 33.9167 32.9384 34.25C32.9239 34.5834 32.7917 34.875 32.5417 35.125ZM29.5834 38.0834C29.3334 38.3334 29.0139 38.4306 28.625 38.375C28.2362 38.3195 27.9306 38.1389 27.7084 37.8334C27.0139 36.8612 26.4723 35.8262 26.0834 34.7284C25.6945 33.6317 25.5 32.5 25.5 31.3334C25.5 28.3056 26.5556 25.7428 28.6667 23.645C30.7778 21.5484 33.3334 20.5 36.3334 20.5C39.3612 20.5 41.9239 21.5484 44.0217 23.645C46.1184 25.7428 47.1667 28.3056 47.1667 31.3334C47.1667 32.5556 46.9795 33.7223 46.605 34.8334C46.2295 35.9445 45.6945 36.9445 45 37.8334C44.7778 38.1389 44.4723 38.3123 44.0834 38.3534C43.6945 38.3956 43.375 38.2917 43.125 38.0417C42.875 37.7917 42.75 37.5 42.75 37.1667C42.75 36.8334 42.8611 36.5139 43.0834 36.2084C43.6111 35.4861 44.0073 34.715 44.2717 33.895C44.535 33.0762 44.6667 32.2223 44.6667 31.3334C44.6667 29 43.8611 27.0278 42.25 25.4167C40.6389 23.8056 38.6667 23 36.3334 23C34.0278 23 32.0628 23.8056 30.4384 25.4167C28.8128 27.0278 28 29 28 31.3334C28 32.2223 28.1456 33.0834 28.4367 33.9167C28.7289 34.75 29.1389 35.5278 29.6667 36.25C29.8889 36.5556 29.9934 36.875 29.98 37.2084C29.9656 37.5417 29.8334 37.8334 29.5834 38.0834V38.0834Z" fill="white"/>
</svg>
