<svg width="1280" height="145" viewBox="0 0 1280 145" fill="none" xmlns="http://www.w3.org/2000/svg">
<g filter="url(#filter0_d_42_1048)">
<rect x="4" width="1272" height="137" rx="36" fill="white" shape-rendering="crispEdges"/>
<path d="M60.5 77.5H58.25V75.25V73V70.75V68.5V66.25H56H53.75H51.5H49.25H47H44.75V68.5V70.75V73V75.25V77.5H42.5H40.25V75.25V73V70.75V68.5V66.25V64V61.75V59.5V57.25V55V52.75V50.5H42.5H44.75V52.75V55V57.25V59.5V61.75H47H49.25H51.5H53.75H56H58.25V59.5V57.25V55V52.75V50.5H60.5H62.75V52.75V55V57.25V59.5V61.75V64V66.25V68.5V70.75V73V75.25V77.5H60.5ZM76.25 77.5H74H71.75H69.5V75.25V73H71.75H74H76.25H78.5V75.25V77.5H76.25ZM78.5 73V70.75V68.5V66.25V64V61.75H80.75H83V64V66.25V68.5V70.75V73H80.75H78.5ZM69.5 73H67.25H65V70.75V68.5V66.25V64V61.75H67.25H69.5V64V66.25V68.5V70.75V73ZM78.5 61.75H76.25H74H71.75H69.5V59.5V57.25H71.75H74H76.25H78.5V59.5V61.75ZM114.5 77.5H112.25V75.25V73V70.75V68.5V66.25V64V61.75H114.5H116.75V64V66.25V68.5V70.75V73V75.25V77.5H114.5ZM101 77.5H98.75V75.25V73V70.75V68.5V66.25V64V61.75H101H103.25V64V66.25V68.5V70.75V73V75.25V77.5H101ZM87.5 77.5H85.25V75.25V73V70.75V68.5V66.25V64V61.75V59.5V57.25H87.5H89.75H92H94.25H96.5H98.75V59.5V61.75H96.5H94.25H92H89.75V64V66.25V68.5V70.75V73V75.25V77.5H87.5ZM112.25 61.75H110H107.75H105.5H103.25V59.5V57.25H105.5H107.75H110H112.25V59.5V61.75ZM134.75 77.5H132.5H130.25H128H125.75H123.5V75.25V73H125.75H128H130.25H132.5V70.75H134.75H137V73V75.25V77.5H134.75ZM123.5 73H121.25H119V70.75V68.5V66.25V64V61.75H121.25H123.5V59.5V57.25H125.75H128H130.25H132.5H134.75H137V59.5V61.75V64V66.25H134.75H132.5V68.5H130.25H128H125.75H123.5V70.75V73ZM130.25 64H132.5V61.75H130.25H128H125.75H123.5V64H125.75H128H130.25ZM170.75 77.5H168.5H166.25H164H161.75H159.5H157.25H155V75.25V73H157.25H159.5H161.75H164H166.25H168.5H170.75V70.75V68.5H173H175.25V70.75V73H173V75.25V77.5H170.75ZM155 73H152.75H150.5V70.75V68.5V66.25V64V61.75V59.5V57.25V55H152.75H155V57.25V59.5V61.75V64V66.25V68.5V70.75V73ZM173 59.5H170.75V57.25V55H168.5H166.25H164H161.75H159.5H157.25H155V52.75V50.5H157.25H159.5H161.75H164H166.25H168.5H170.75H173V52.75V55H175.25V57.25V59.5H173ZM188.75 77.5H186.5H184.25H182V75.25V73H184.25H186.5H188.75H191V75.25V77.5H188.75ZM191 73V70.75V68.5V66.25V64V61.75H193.25H195.5V64V66.25V68.5V70.75V73H193.25H191ZM182 73H179.75H177.5V70.75V68.5V66.25V64V61.75H179.75H182V64V66.25V68.5V70.75V73ZM191 61.75H188.75H186.5H184.25H182V59.5V57.25H184.25H186.5H188.75H191V59.5V61.75ZM215.75 77.5H213.5V75.25V73V70.75V68.5V66.25V64V61.75H215.75H218V64V66.25V68.5V70.75V73V75.25V77.5H215.75ZM200 77.5H197.75V75.25V73V70.75V68.5V66.25V64V61.75V59.5V57.25H200H202.25H204.5H206.75H209H211.25H213.5V59.5V61.75H211.25H209H206.75H204.5H202.25V64V66.25V68.5V70.75V73V75.25V77.5H200ZM229.25 77.5H227V75.25V73H229.25H231.5V75.25V77.5H229.25ZM227 73H224.75H222.5V70.75V68.5V66.25V64V61.75H220.25V59.5V57.25H222.5V55V52.75H224.75H227V55V57.25H229.25V59.5V61.75H227V64V66.25V68.5V70.75V73ZM247.25 64V61.75H245H242.75H240.5V64H238.25V66.25V68.5V70.75V73V75.25V77.5H236H233.75V75.25V73V70.75V68.5V66.25V64V61.75V59.5V57.25H236H238.25V59.5H240.5V57.25H242.75H245H247.25V59.5H249.5V61.75V64H247.25ZM263 77.5H260.75H258.5H256.25V75.25V73H258.5H260.75H263H265.25V75.25V77.5H263ZM265.25 73V70.75V68.5V66.25V64V61.75H267.5H269.75V64V66.25V68.5V70.75V73H267.5H265.25ZM256.25 73H254H251.75V70.75V68.5V66.25V64V61.75H254H256.25V64V66.25V68.5V70.75V73ZM265.25 61.75H263H260.75H258.5H256.25V59.5V57.25H258.5H260.75H263H265.25V59.5V61.75ZM274.25 77.5H272V75.25V73V70.75V68.5V66.25V64V61.75V59.5V57.25V55V52.75V50.5H274.25H276.5V52.75V55V57.25V59.5V61.75V64V66.25V68.5V70.75V73V75.25V77.5H274.25ZM287.75 77.5H285.5H283.25H281H278.75V75.25V73H281H283.25H285.5H287.75H290V75.25V77.5H287.75ZM290 73V70.75V68.5H292.25H294.5V70.75V73H292.25H290ZM290 68.5H287.75H285.5H283.25V66.25V64H285.5H287.75H290V66.25V68.5ZM283.25 64H281H278.75V61.75V59.5H281H283.25V61.75V64ZM292.25 59.5H290H287.75H285.5H283.25V57.25V55H285.5H287.75H290H292.25H294.5V57.25V59.5H292.25Z" fill="black"/>
</g>
<defs>
<filter id="filter0_d_42_1048" x="0" y="0" width="1280" height="145" filterUnits="userSpaceOnUse" color-interpolation-filters="sRGB">
<feFlood flood-opacity="0" result="BackgroundImageFix"/>
<feColorMatrix in="SourceAlpha" type="matrix" values="0 0 0 0 0 0 0 0 0 0 0 0 0 0 0 0 0 0 127 0" result="hardAlpha"/>
<feOffset dy="4"/>
<feGaussianBlur stdDeviation="2"/>
<feComposite in2="hardAlpha" operator="out"/>
<feColorMatrix type="matrix" values="0 0 0 0 0 0 0 0 0 0 0 0 0 0 0 0 0 0 0.25 0"/>
<feBlend mode="normal" in2="BackgroundImageFix" result="effect1_dropShadow_42_1048"/>
<feBlend mode="normal" in="SourceGraphic" in2="effect1_dropShadow_42_1048" result="shape"/>
</filter>
</defs>
</svg>
