<svg width="1280" height="145" viewBox="0 0 1280 145" fill="none" xmlns="http://www.w3.org/2000/svg">
<g filter="url(#filter0_d_42_1055)">
<rect x="4" width="1272" height="137" rx="36" fill="white" shape-rendering="crispEdges"/>
<path d="M60.625 77.5H58.375V75.25V73V70.75V68.5V66.25H56.125H53.875H51.625H49.375H47.125H44.875V68.5V70.75V73V75.25V77.5H42.625H40.375V75.25V73V70.75V68.5V66.25V64V61.75V59.5V57.25V55V52.75V50.5H42.625H44.875V52.75V55V57.25V59.5V61.75H47.125H49.375H51.625H53.875H56.125H58.375V59.5V57.25V55V52.75V50.5H60.625H62.875V52.75V55V57.25V59.5V61.75V64V66.25V68.5V70.75V73V75.25V77.5H60.625ZM83.125 77.5H80.875H78.625H76.375H74.125H71.875H69.625V75.25V73H67.375H65.125V70.75V68.5H67.375H69.625V66.25V64H71.875H74.125H76.375H78.625H80.875V61.75H83.125H85.375V64V66.25V68.5V70.75V73V75.25V77.5H83.125ZM78.625 73H80.875V70.75V68.5H78.625H76.375H74.125H71.875H69.625V70.75V73H71.875H74.125H76.375H78.625ZM80.875 61.75H78.625H76.375H74.125H71.875H69.625H67.375H65.125V59.5V57.25H67.375H69.625H71.875H74.125H76.375H78.625H80.875V59.5V61.75ZM103.375 77.5H101.125H98.875H96.625H94.375H92.125H89.875H87.625V75.25V73V70.75V68.5V66.25V64V61.75V59.5V57.25V55V52.75V50.5H89.875H92.125V52.75V55V57.25V59.5V61.75V64H94.375H96.625V66.25V68.5H94.375H92.125V70.75V73H94.375H96.625H98.875H101.125H103.375H105.625V75.25V77.5H103.375ZM105.625 73V70.75V68.5V66.25V64H107.875H110.125V66.25V68.5V70.75V73H107.875H105.625ZM105.625 64H103.375H101.125H98.875H96.625V61.75V59.5H98.875H101.125H103.375H105.625V61.75V64ZM114.625 77.5H112.375V75.25V73V70.75V68.5V66.25V64V61.75V59.5V57.25H114.625H116.875V59.5V61.75V64V66.25V68.5V70.75V73V75.25V77.5H114.625ZM114.625 55H112.375V52.75V50.5H114.625H116.875V52.75V55H114.625ZM128.125 77.5H125.875V75.25V73H128.125H130.375V75.25V77.5H128.125ZM125.875 73H123.625H121.375V70.75V68.5V66.25V64V61.75H119.125V59.5V57.25H121.375V55V52.75H123.625H125.875V55V57.25H128.125V59.5V61.75H125.875V64V66.25V68.5V70.75V73ZM141.625 77.5H139.375H137.125H134.875H132.625V75.25V73H134.875H137.125H139.375H141.625H143.875V75.25V77.5H141.625ZM143.875 73V70.75V68.5H146.125H148.375V70.75V73H146.125H143.875ZM143.875 68.5H141.625H139.375H137.125V66.25V64H139.375H141.625H143.875V66.25V68.5ZM137.125 64H134.875H132.625V61.75V59.5H134.875H137.125V61.75V64ZM146.125 59.5H143.875H141.625H139.375H137.125V57.25V55H139.375H141.625H143.875H146.125H148.375V57.25V59.5H146.125Z" fill="black"/>
</g>
<defs>
<filter id="filter0_d_42_1055" x="0" y="0" width="1280" height="145" filterUnits="userSpaceOnUse" color-interpolation-filters="sRGB">
<feFlood flood-opacity="0" result="BackgroundImageFix"/>
<feColorMatrix in="SourceAlpha" type="matrix" values="0 0 0 0 0 0 0 0 0 0 0 0 0 0 0 0 0 0 127 0" result="hardAlpha"/>
<feOffset dy="4"/>
<feGaussianBlur stdDeviation="2"/>
<feComposite in2="hardAlpha" operator="out"/>
<feColorMatrix type="matrix" values="0 0 0 0 0 0 0 0 0 0 0 0 0 0 0 0 0 0 0.25 0"/>
<feBlend mode="normal" in2="BackgroundImageFix" result="effect1_dropShadow_42_1055"/>
<feBlend mode="normal" in="SourceGraphic" in2="effect1_dropShadow_42_1055" result="shape"/>
</filter>
</defs>
</svg>
