<svg width="56" height="56" viewBox="0 0 56 56" fill="none" xmlns="http://www.w3.org/2000/svg">
<path d="M26.3333 38.8333C26.3333 38.1944 26.1183 37.5628 25.6883 36.9383C25.2572 36.3128 24.7778 35.66 24.25 34.98C23.7222 34.2989 23.2428 33.59 22.8117 32.8533C22.3817 32.1178 22.1667 31.3333 22.1667 30.5C22.1667 28.8889 22.7361 27.5139 23.875 26.375C25.0139 25.2361 26.3889 24.6667 28 24.6667C29.6111 24.6667 30.9861 25.2361 32.125 26.375C33.2639 27.5139 33.8333 28.8889 33.8333 30.5C33.8333 31.3333 33.6183 32.1178 33.1883 32.8533C32.7572 33.59 32.2778 34.2989 31.75 34.98C31.2222 35.66 30.7428 36.3128 30.3117 36.9383C29.8817 37.5628 29.6667 38.1944 29.6667 38.8333H26.3333ZM28 43C27.5278 43 27.1322 42.84 26.8133 42.52C26.4933 42.2011 26.3333 41.8056 26.3333 41.3333V40.5H29.6667V41.3333C29.6667 41.8056 29.5072 42.2011 29.1883 42.52C28.8683 42.84 28.4722 43 28 43ZM38 38C37.75 37.75 37.6044 37.4306 37.5633 37.0417C37.5211 36.6528 37.6111 36.3056 37.8333 36C38.4167 35.0833 38.8678 34.09 39.1867 33.02C39.5067 31.9511 39.6667 30.8333 39.6667 29.6667C39.6667 28.1389 39.3961 26.7011 38.855 25.3533C38.3128 24.0067 37.5556 22.8056 36.5833 21.75C36.2778 21.3889 36.1183 20.9928 36.105 20.5617C36.0906 20.1317 36.25 19.75 36.5833 19.4167C36.9167 19.0833 37.3194 18.9167 37.7917 18.9167C38.2639 18.9167 38.6528 19.0833 38.9583 19.4167C40.2083 20.75 41.1944 22.2917 41.9167 24.0417C42.6389 25.7917 43 27.6667 43 29.6667C43 31.1667 42.7917 32.6039 42.375 33.9783C41.9583 35.3539 41.375 36.625 40.625 37.7917C40.3194 38.2639 39.9028 38.5139 39.375 38.5417C38.8472 38.5694 38.3889 38.3889 38 38ZM15.375 37.7917C14.625 36.625 14.0417 35.3539 13.625 33.9783C13.2083 32.6039 13 31.1667 13 29.6667C13 25.5 14.4583 21.9583 17.375 19.0417C20.2917 16.125 23.8333 14.6667 28 14.6667H28.3333L26.8333 13.1667C26.5278 12.8611 26.375 12.4722 26.375 12C26.375 11.5278 26.5278 11.1389 26.8333 10.8333C27.1389 10.5278 27.5278 10.375 28 10.375C28.4722 10.375 28.8611 10.5278 29.1667 10.8333L33.5 15.1667C33.6667 15.3333 33.785 15.5139 33.855 15.7083C33.9239 15.9028 33.9583 16.1111 33.9583 16.3333C33.9583 16.5556 33.9239 16.7639 33.855 16.9583C33.785 17.1528 33.6667 17.3333 33.5 17.5L29.1667 21.8333C28.8333 22.1667 28.4444 22.3261 28 22.3117C27.5556 22.2983 27.1667 22.125 26.8333 21.7917C26.5 21.4583 26.3333 21.0622 26.3333 20.6033C26.3333 20.1456 26.5 19.75 26.8333 19.4167L28.25 18H28C24.7778 18 22.0278 19.1389 19.75 21.4167C17.4722 23.6944 16.3333 26.4444 16.3333 29.6667C16.3333 30.8333 16.4928 31.9511 16.8117 33.02C17.1317 34.09 17.5833 35.0833 18.1667 36C18.3889 36.3056 18.4794 36.6528 18.4383 37.0417C18.3961 37.4306 18.25 37.75 18 38C17.6111 38.3889 17.1528 38.5694 16.625 38.5417C16.0972 38.5139 15.6806 38.2639 15.375 37.7917V37.7917Z" fill="#888888"/>
</svg>
