<svg width="1262" height="145" viewBox="0 0 1262 145" fill="none" xmlns="http://www.w3.org/2000/svg">
<g filter="url(#filter0_d_28_78)">
<rect x="4" width="1254" height="137" rx="36" fill="white" shape-rendering="crispEdges"/>
<path d="M60.25 77.5H58V75.25V73H55.75H53.5V70.75V68.5H55.75H58V66.25V64V61.75V59.5V57.25V55V52.75V50.5H60.25H62.5V52.75V55V57.25V59.5V61.75V64V66.25V68.5V70.75V73V75.25V77.5H60.25ZM42.25 77.5H40V75.25V73V70.75V68.5V66.25V64V61.75V59.5V57.25V55V52.75V50.5H42.25H44.5V52.75V55V57.25V59.5V61.75V64V66.25V68.5H46.75H49V70.75V73H46.75H44.5V75.25V77.5H42.25ZM53.5 68.5H51.25H49V66.25V64H51.25H53.5V66.25V68.5ZM80.5 77.5H78.25H76H73.75H71.5H69.25V75.25V73H71.5H73.75H76H78.25V70.75H80.5H82.75V73V75.25V77.5H80.5ZM69.25 73H67H64.75V70.75V68.5V66.25V64V61.75H67H69.25V59.5V57.25H71.5H73.75H76H78.25H80.5H82.75V59.5V61.75V64V66.25H80.5H78.25V68.5H76H73.75H71.5H69.25V70.75V73ZM76 64H78.25V61.75H76H73.75H71.5H69.25V64H71.5H73.75H76ZM87.25 77.5H85V75.25V73V70.75V68.5V66.25V64V61.75V59.5V57.25V55V52.75V50.5H87.25H89.5V52.75V55V57.25V59.5V61.75V64V66.25V68.5V70.75V73V75.25V77.5H87.25ZM105.25 77.5H103H100.75H98.5H96.25V75.25V73H98.5H100.75H103H105.25H107.5V75.25V77.5H105.25ZM107.5 73V70.75V68.5H109.75H112V70.75V73H109.75H107.5ZM96.25 73H94H91.75V70.75V68.5V66.25V64V61.75H94H96.25V64V66.25V68.5V70.75V73ZM109.75 66.25H107.5V64V61.75H109.75H112V64V66.25H109.75ZM107.5 61.75H105.25H103H100.75H98.5H96.25V59.5V57.25H98.5H100.75H103H105.25H107.5V59.5V61.75ZM125.5 77.5H123.25H121H118.75V75.25V73H121H123.25H125.5H127.75V75.25V77.5H125.5ZM127.75 73V70.75V68.5V66.25V64V61.75H130H132.25V64V66.25V68.5V70.75V73H130H127.75ZM118.75 73H116.5H114.25V70.75V68.5V66.25V64V61.75H116.5H118.75V64V66.25V68.5V70.75V73ZM127.75 61.75H125.5H123.25H121H118.75V59.5V57.25H121H123.25H125.5H127.75V59.5V61.75ZM163.75 77.5H161.5V75.25V73V70.75V68.5V66.25V64V61.75H163.75H166V64V66.25V68.5V70.75V73V75.25V77.5H163.75ZM150.25 77.5H148V75.25V73V70.75V68.5V66.25V64V61.75H150.25H152.5V64V66.25V68.5V70.75V73V75.25V77.5H150.25ZM136.75 77.5H134.5V75.25V73V70.75V68.5V66.25V64V61.75V59.5V57.25H136.75H139H141.25H143.5H145.75H148V59.5V61.75H145.75H143.5H141.25H139V64V66.25V68.5V70.75V73V75.25V77.5H136.75ZM161.5 61.75H159.25H157H154.75H152.5V59.5V57.25H154.75H157H159.25H161.5V59.5V61.75ZM184 77.5H181.75H179.5H177.25H175H172.75V75.25V73H175H177.25H179.5H181.75V70.75H184H186.25V73V75.25V77.5H184ZM172.75 73H170.5H168.25V70.75V68.5V66.25V64V61.75H170.5H172.75V59.5V57.25H175H177.25H179.5H181.75H184H186.25V59.5V61.75V64V66.25H184H181.75V68.5H179.5H177.25H175H172.75V70.75V73ZM179.5 64H181.75V61.75H179.5H177.25H175H172.75V64H175H177.25H179.5ZM220 77.5H217.75V75.25V73V70.75V68.5V66.25H215.5H213.25H211H208.75H206.5H204.25V68.5V70.75V73V75.25V77.5H202H199.75V75.25V73V70.75V68.5V66.25V64V61.75V59.5V57.25V55V52.75V50.5H202H204.25V52.75V55V57.25V59.5V61.75H206.5H208.75H211H213.25H215.5H217.75V59.5V57.25V55V52.75V50.5H220H222.25V52.75V55V57.25V59.5V61.75V64V66.25V68.5V70.75V73V75.25V77.5H220ZM235.75 77.5H233.5H231.25H229V75.25V73H231.25H233.5H235.75H238V75.25V77.5H235.75ZM238 73V70.75V68.5V66.25V64V61.75H240.25H242.5V64V66.25V68.5V70.75V73H240.25H238ZM229 73H226.75H224.5V70.75V68.5V66.25V64V61.75H226.75H229V64V66.25V68.5V70.75V73ZM238 61.75H235.75H233.5H231.25H229V59.5V57.25H231.25H233.5H235.75H238V59.5V61.75ZM274 77.5H271.75V75.25V73V70.75V68.5V66.25V64V61.75H274H276.25V64V66.25V68.5V70.75V73V75.25V77.5H274ZM260.5 77.5H258.25V75.25V73V70.75V68.5V66.25V64V61.75H260.5H262.75V64V66.25V68.5V70.75V73V75.25V77.5H260.5ZM247 77.5H244.75V75.25V73V70.75V68.5V66.25V64V61.75V59.5V57.25H247H249.25H251.5H253.75H256H258.25V59.5V61.75H256H253.75H251.5H249.25V64V66.25V68.5V70.75V73V75.25V77.5H247ZM271.75 61.75H269.5H267.25H265H262.75V59.5V57.25H265H267.25H269.5H271.75V59.5V61.75ZM294.25 77.5H292H289.75H287.5H285.25H283V75.25V73H285.25H287.5H289.75H292V70.75H294.25H296.5V73V75.25V77.5H294.25ZM283 73H280.75H278.5V70.75V68.5V66.25V64V61.75H280.75H283V59.5V57.25H285.25H287.5H289.75H292H294.25H296.5V59.5V61.75V64V66.25H294.25H292V68.5H289.75H287.5H285.25H283V70.75V73ZM289.75 64H292V61.75H289.75H287.5H285.25H283V64H285.25H287.5H289.75ZM328 77.5H325.75V75.25V73V70.75V68.5V66.25V64H323.5H321.25H319H316.75H314.5V66.25V68.5V70.75V73V75.25V77.5H312.25H310V75.25V73V70.75V68.5V66.25V64V61.75V59.5V57.25V55H312.25H314.5V57.25V59.5H316.75H319H321.25H323.5H325.75V57.25V55H328H330.25V57.25V59.5V61.75V64V66.25V68.5V70.75V73V75.25V77.5H328ZM325.75 55H323.5H321.25H319H316.75H314.5V52.75V50.5H316.75H319H321.25H323.5H325.75V52.75V55ZM346 64V61.75H343.75H341.5H339.25V64H337V66.25V68.5V70.75V73V75.25V77.5H334.75H332.5V75.25V73V70.75V68.5V66.25V64V61.75V59.5V57.25H334.75H337V59.5H339.25V57.25H341.5H343.75H346V59.5H348.25V61.75V64H346ZM368.5 77.5H366.25V75.25V73V70.75V68.5V66.25V64V61.75H368.5H370.75V64V66.25V68.5V70.75V73V75.25V77.5H368.5ZM352.75 77.5H350.5V75.25V73V70.75V68.5V66.25V64V61.75V59.5V57.25H352.75H355H357.25H359.5H361.75H364H366.25V59.5V61.75H364H361.75H359.5H357.25H355V64V66.25V68.5V70.75V73V75.25V77.5H352.75ZM384.25 77.5H382H379.75H377.5V75.25V73H379.75H382H384.25H386.5V75.25V77.5H384.25ZM386.5 73V70.75V68.5V66.25V64V61.75H388.75H391V64V66.25V68.5V70.75V73H388.75H386.5ZM377.5 73H375.25H373V70.75V68.5V66.25V64V61.75H375.25H377.5V64V66.25V68.5V70.75V73ZM386.5 61.75H384.25H382H379.75H377.5V59.5V57.25H379.75H382H384.25H386.5V59.5V61.75ZM395.5 77.5H393.25V75.25V73V70.75V68.5V66.25V64V61.75V59.5V57.25V55V52.75V50.5H395.5H397.75V52.75V55V57.25V59.5V61.75V64V66.25V68.5V70.75V73V75.25V77.5H395.5ZM415.75 77.5H413.5H411.25H409H406.75H404.5H402.25H400V75.25V73V70.75V68.5V66.25V64V61.75H402.25H404.5V59.5V57.25H406.75H409H411.25H413.5V55V52.75V50.5H415.75H418V52.75V55V57.25V59.5V61.75V64V66.25V68.5V70.75V73V75.25V77.5H415.75ZM411.25 73H413.5V70.75V68.5V66.25V64V61.75H411.25H409H406.75H404.5V64V66.25V68.5V70.75V73H406.75H409H411.25ZM422.5 77.5H420.25V75.25V73H422.5H424.75V75.25V77.5H422.5ZM422.5 70.75H420.25V68.5V66.25V64V61.75V59.5V57.25V55V52.75V50.5H422.5H424.75V52.75V55V57.25V59.5V61.75V64V66.25V68.5V70.75H422.5Z" fill="black"/>
</g>
<defs>
<filter id="filter0_d_28_78" x="0" y="0" width="1262" height="145" filterUnits="userSpaceOnUse" color-interpolation-filters="sRGB">
<feFlood flood-opacity="0" result="BackgroundImageFix"/>
<feColorMatrix in="SourceAlpha" type="matrix" values="0 0 0 0 0 0 0 0 0 0 0 0 0 0 0 0 0 0 127 0" result="hardAlpha"/>
<feOffset dy="4"/>
<feGaussianBlur stdDeviation="2"/>
<feComposite in2="hardAlpha" operator="out"/>
<feColorMatrix type="matrix" values="0 0 0 0 0 0 0 0 0 0 0 0 0 0 0 0 0 0 0.25 0"/>
<feBlend mode="normal" in2="BackgroundImageFix" result="effect1_dropShadow_28_78"/>
<feBlend mode="normal" in="SourceGraphic" in2="effect1_dropShadow_28_78" result="shape"/>
</filter>
</defs>
</svg>
