<svg width="56" height="56" viewBox="0 0 56 56" fill="none" xmlns="http://www.w3.org/2000/svg">
<path d="M9.66667 38C9.19444 38 8.79889 37.84 8.48 37.52C8.16 37.2011 8 36.8056 8 36.3333V35.375C8 34.1528 8.61111 33.1733 9.83333 32.4367C11.0556 31.7011 12.6667 31.3333 14.6667 31.3333C15.0278 31.3333 15.3683 31.3472 15.6883 31.375C16.0072 31.4028 16.3194 31.4444 16.625 31.5C16.2361 32.0556 15.9511 32.6528 15.77 33.2917C15.59 33.9306 15.5 34.6111 15.5 35.3333V38H9.66667ZM19.6667 38C19.1944 38 18.7983 37.84 18.4783 37.52C18.1594 37.2011 18 36.8056 18 36.3333V35.3333C18 33.5278 18.9239 32.0622 20.7717 30.9367C22.6183 29.8122 25.0278 29.25 28 29.25C31 29.25 33.4167 29.8122 35.25 30.9367C37.0833 32.0622 38 33.5278 38 35.3333V36.3333C38 36.8056 37.84 37.2011 37.52 37.52C37.2011 37.84 36.8056 38 36.3333 38H19.6667ZM40.5 38V35.3333C40.5 34.6111 40.4028 33.9306 40.2083 33.2917C40.0139 32.6528 39.7361 32.0556 39.375 31.5C39.6806 31.4444 39.9933 31.4028 40.3133 31.375C40.6322 31.3472 40.9722 31.3333 41.3333 31.3333C43.3333 31.3333 44.9444 31.7011 46.1667 32.4367C47.3889 33.1733 48 34.1528 48 35.375V36.3333C48 36.8056 47.84 37.2011 47.52 37.52C47.2011 37.84 46.8056 38 46.3333 38H40.5ZM14.6667 29.6667C13.75 29.6667 12.9656 29.34 12.3133 28.6867C11.66 28.0344 11.3333 27.25 11.3333 26.3333C11.3333 25.4167 11.66 24.6317 12.3133 23.9783C12.9656 23.3261 13.75 23 14.6667 23C15.5833 23 16.3678 23.3261 17.02 23.9783C17.6733 24.6317 18 25.4167 18 26.3333C18 27.25 17.6733 28.0344 17.02 28.6867C16.3678 29.34 15.5833 29.6667 14.6667 29.6667ZM41.3333 29.6667C40.4167 29.6667 39.6317 29.34 38.9783 28.6867C38.3261 28.0344 38 27.25 38 26.3333C38 25.4167 38.3261 24.6317 38.9783 23.9783C39.6317 23.3261 40.4167 23 41.3333 23C42.25 23 43.035 23.3261 43.6883 23.9783C44.3406 24.6317 44.6667 25.4167 44.6667 26.3333C44.6667 27.25 44.3406 28.0344 43.6883 28.6867C43.035 29.34 42.25 29.6667 41.3333 29.6667ZM28 28C26.6111 28 25.4306 27.5139 24.4583 26.5417C23.4861 25.5694 23 24.3889 23 23C23 21.6111 23.4861 20.4306 24.4583 19.4583C25.4306 18.4861 26.6111 18 28 18C29.3889 18 30.5694 18.4861 31.5417 19.4583C32.5139 20.4306 33 21.6111 33 23C33 24.3889 32.5139 25.5694 31.5417 26.5417C30.5694 27.5139 29.3889 28 28 28Z" fill="#999999"/>
</svg>
