<svg width="1280" height="145" viewBox="0 0 1280 145" fill="none" xmlns="http://www.w3.org/2000/svg">
<g filter="url(#filter0_d_44_413)">
<rect x="4" width="1272" height="137" rx="36" fill="white" shape-rendering="crispEdges"/>
<path d="M58.25 77.5H56H53.75H51.5H49.25H47H44.75H42.5H40.25V75.25V73V70.75V68.5V66.25V64V61.75V59.5V57.25V55V52.75V50.5H42.5H44.75V52.75V55V57.25V59.5V61.75V64V66.25V68.5V70.75V73H47H49.25H51.5H53.75H56H58.25H60.5V75.25V77.5H58.25ZM78.5 77.5H76.25H74H71.75H69.5H67.25V75.25V73H69.5H71.75H74H76.25V70.75H78.5H80.75V73V75.25V77.5H78.5ZM67.25 73H65H62.75V70.75V68.5V66.25V64V61.75H65H67.25V59.5V57.25H69.5H71.75H74H76.25H78.5H80.75V59.5V61.75V64V66.25H78.5H76.25V68.5H74H71.75H69.5H67.25V70.75V73ZM74 64H76.25V61.75H74H71.75H69.5H67.25V64H69.5H71.75H74ZM101 77.5H98.75H96.5H94.25H92H89.75H87.5V75.25V73H85.25H83V70.75V68.5H85.25H87.5V66.25V64H89.75H92H94.25H96.5H98.75V61.75H101H103.25V64V66.25V68.5V70.75V73V75.25V77.5H101ZM96.5 73H98.75V70.75V68.5H96.5H94.25H92H89.75H87.5V70.75V73H89.75H92H94.25H96.5ZM98.75 61.75H96.5H94.25H92H89.75H87.5H85.25H83V59.5V57.25H85.25H87.5H89.75H92H94.25H96.5H98.75V59.5V61.75ZM121.25 77.5H119H116.75H114.5H112.25H110H107.75H105.5V75.25V73V70.75V68.5V66.25V64V61.75H107.75H110V59.5V57.25H112.25H114.5H116.75H119V55V52.75V50.5H121.25H123.5V52.75V55V57.25V59.5V61.75V64V66.25V68.5V70.75V73V75.25V77.5H121.25ZM116.75 73H119V70.75V68.5V66.25V64V61.75H116.75H114.5H112.25H110V64V66.25V68.5V70.75V73H112.25H114.5H116.75ZM141.5 77.5H139.25H137H134.75H132.5H130.25V75.25V73H132.5H134.75H137H139.25V70.75H141.5H143.75V73V75.25V77.5H141.5ZM130.25 73H128H125.75V70.75V68.5V66.25V64V61.75H128H130.25V59.5V57.25H132.5H134.75H137H139.25H141.5H143.75V59.5V61.75V64V66.25H141.5H139.25V68.5H137H134.75H132.5H130.25V70.75V73ZM137 64H139.25V61.75H137H134.75H132.5H130.25V64H132.5H134.75H137ZM159.5 64V61.75H157.25H155H152.75V64H150.5V66.25V68.5V70.75V73V75.25V77.5H148.25H146V75.25V73V70.75V68.5V66.25V64V61.75V59.5V57.25H148.25H150.5V59.5H152.75V57.25H155H157.25H159.5V59.5H161.75V61.75V64H159.5ZM179.75 77.5H177.5H175.25H173H170.75H168.5H166.25H164V75.25V73V70.75V68.5V66.25V64V61.75V59.5V57.25V55V52.75V50.5H166.25H168.5V52.75V55V57.25V59.5V61.75V64H170.75H173V66.25V68.5H170.75H168.5V70.75V73H170.75H173H175.25H177.5H179.75H182V75.25V77.5H179.75ZM182 73V70.75V68.5V66.25V64H184.25H186.5V66.25V68.5V70.75V73H184.25H182ZM182 64H179.75H177.5H175.25H173V61.75V59.5H175.25H177.5H179.75H182V61.75V64ZM200 77.5H197.75H195.5H193.25V75.25V73H195.5H197.75H200H202.25V75.25V77.5H200ZM202.25 73V70.75V68.5V66.25V64V61.75H204.5H206.75V64V66.25V68.5V70.75V73H204.5H202.25ZM193.25 73H191H188.75V70.75V68.5V66.25V64V61.75H191H193.25V64V66.25V68.5V70.75V73ZM202.25 61.75H200H197.75H195.5H193.25V59.5V57.25H195.5H197.75H200H202.25V59.5V61.75ZM227 77.5H224.75H222.5H220.25H218H215.75H213.5V75.25V73H211.25H209V70.75V68.5H211.25H213.5V66.25V64H215.75H218H220.25H222.5H224.75V61.75H227H229.25V64V66.25V68.5V70.75V73V75.25V77.5H227ZM222.5 73H224.75V70.75V68.5H222.5H220.25H218H215.75H213.5V70.75V73H215.75H218H220.25H222.5ZM224.75 61.75H222.5H220.25H218H215.75H213.5H211.25H209V59.5V57.25H211.25H213.5H215.75H218H220.25H222.5H224.75V59.5V61.75ZM245 64V61.75H242.75H240.5H238.25V64H236V66.25V68.5V70.75V73V75.25V77.5H233.75H231.5V75.25V73V70.75V68.5V66.25V64V61.75V59.5V57.25H233.75H236V59.5H238.25V57.25H240.5H242.75H245V59.5H247.25V61.75V64H245ZM265.25 77.5H263H260.75H258.5H256.25H254H251.75H249.5V75.25V73V70.75V68.5V66.25V64V61.75H251.75H254V59.5V57.25H256.25H258.5H260.75H263V55V52.75V50.5H265.25H267.5V52.75V55V57.25V59.5V61.75V64V66.25V68.5V70.75V73V75.25V77.5H265.25ZM260.75 73H263V70.75V68.5V66.25V64V61.75H260.75H258.5H256.25H254V64V66.25V68.5V70.75V73H256.25H258.5H260.75Z" fill="black"/>
</g>
<defs>
<filter id="filter0_d_44_413" x="0" y="0" width="1280" height="145" filterUnits="userSpaceOnUse" color-interpolation-filters="sRGB">
<feFlood flood-opacity="0" result="BackgroundImageFix"/>
<feColorMatrix in="SourceAlpha" type="matrix" values="0 0 0 0 0 0 0 0 0 0 0 0 0 0 0 0 0 0 127 0" result="hardAlpha"/>
<feOffset dy="4"/>
<feGaussianBlur stdDeviation="2"/>
<feComposite in2="hardAlpha" operator="out"/>
<feColorMatrix type="matrix" values="0 0 0 0 0 0 0 0 0 0 0 0 0 0 0 0 0 0 0.25 0"/>
<feBlend mode="normal" in2="BackgroundImageFix" result="effect1_dropShadow_44_413"/>
<feBlend mode="normal" in="SourceGraphic" in2="effect1_dropShadow_44_413" result="shape"/>
</filter>
</defs>
</svg>
