<svg width="1280" height="145" viewBox="0 0 1280 145" fill="none" xmlns="http://www.w3.org/2000/svg">
<g filter="url(#filter0_d_42_1532)">
<rect x="4" width="1272" height="137" rx="36" fill="white" shape-rendering="crispEdges"/>
<path d="M58 77.5H55.75V75.25V73V70.75V68.5V66.25V64H53.5H51.25H49H46.75H44.5V66.25V68.5V70.75V73V75.25V77.5H42.25H40V75.25V73V70.75V68.5V66.25V64V61.75V59.5V57.25V55H42.25H44.5V57.25V59.5H46.75H49H51.25H53.5H55.75V57.25V55H58H60.25V57.25V59.5V61.75V64V66.25V68.5V70.75V73V75.25V77.5H58ZM55.75 55H53.5H51.25H49H46.75H44.5V52.75V50.5H46.75H49H51.25H53.5H55.75V52.75V55ZM76 77.5H73.75H71.5H69.25H67V75.25V73H69.25H71.5H73.75H76H78.25V75.25V77.5H76ZM78.25 73V70.75V68.5H80.5H82.75V70.75V73H80.5H78.25ZM67 73H64.75H62.5V70.75V68.5V66.25V64V61.75H64.75H67V64V66.25V68.5V70.75V73ZM80.5 66.25H78.25V64V61.75H80.5H82.75V64V66.25H80.5ZM78.25 61.75H76H73.75H71.5H69.25H67V59.5V57.25H69.25H71.5H73.75H76H78.25V59.5V61.75ZM98.5 77.5H96.25H94H91.75H89.5V75.25V73H91.75H94H96.25H98.5H100.75V75.25V77.5H98.5ZM100.75 73V70.75V68.5H103H105.25V70.75V73H103H100.75ZM89.5 73H87.25H85V70.75V68.5V66.25V64V61.75H87.25H89.5V64V66.25V68.5V70.75V73ZM103 66.25H100.75V64V61.75H103H105.25V64V66.25H103ZM100.75 61.75H98.5H96.25H94H91.75H89.5V59.5V57.25H91.75H94H96.25H98.5H100.75V59.5V61.75ZM118.75 77.5H116.5H114.25H112V75.25V73H114.25H116.5H118.75H121V75.25V77.5H118.75ZM121 73V70.75V68.5V66.25V64V61.75H123.25H125.5V64V66.25V68.5V70.75V73H123.25H121ZM112 73H109.75H107.5V70.75V68.5V66.25V64V61.75H109.75H112V64V66.25V68.5V70.75V73ZM121 61.75H118.75H116.5H114.25H112V59.5V57.25H114.25H116.5H118.75H121V59.5V61.75ZM143.5 77.5H141.25H139H136.75H134.5H132.25V75.25V73H134.5H136.75H139H141.25V70.75V68.5V66.25V64V61.75V59.5V57.25H143.5H145.75V59.5V61.75V64V66.25V68.5V70.75V73V75.25V77.5H143.5ZM132.25 73H130H127.75V70.75V68.5V66.25V64V61.75V59.5V57.25H130H132.25V59.5V61.75V64V66.25V68.5V70.75V73ZM166 77.5H163.75V75.25V73V70.75V68.5V66.25V64V61.75H166H168.25V64V66.25V68.5V70.75V73V75.25V77.5H166ZM150.25 77.5H148V75.25V73V70.75V68.5V66.25V64V61.75V59.5V57.25H150.25H152.5H154.75H157H159.25H161.5H163.75V59.5V61.75H161.5H159.25H157H154.75H152.5V64V66.25V68.5V70.75V73V75.25V77.5H150.25ZM179.5 77.5H177.25V75.25V73H179.5H181.75V75.25V77.5H179.5ZM177.25 73H175H172.75V70.75V68.5V66.25V64V61.75H170.5V59.5V57.25H172.75V55V52.75H175H177.25V55V57.25H179.5V59.5V61.75H177.25V64V66.25V68.5V70.75V73Z" fill="black"/>
</g>
<defs>
<filter id="filter0_d_42_1532" x="0" y="0" width="1280" height="145" filterUnits="userSpaceOnUse" color-interpolation-filters="sRGB">
<feFlood flood-opacity="0" result="BackgroundImageFix"/>
<feColorMatrix in="SourceAlpha" type="matrix" values="0 0 0 0 0 0 0 0 0 0 0 0 0 0 0 0 0 0 127 0" result="hardAlpha"/>
<feOffset dy="4"/>
<feGaussianBlur stdDeviation="2"/>
<feComposite in2="hardAlpha" operator="out"/>
<feColorMatrix type="matrix" values="0 0 0 0 0 0 0 0 0 0 0 0 0 0 0 0 0 0 0.25 0"/>
<feBlend mode="normal" in2="BackgroundImageFix" result="effect1_dropShadow_42_1532"/>
<feBlend mode="normal" in="SourceGraphic" in2="effect1_dropShadow_42_1532" result="shape"/>
</filter>
</defs>
</svg>
