<svg width="56" height="56" viewBox="0 0 56 56" fill="none" xmlns="http://www.w3.org/2000/svg">
<rect width="56" height="56" rx="8" fill="#10BC10"/>
<path d="M31.125 44.6667H24.875C24.4583 44.6667 24.0972 44.5278 23.7917 44.25C23.4861 43.9723 23.3055 43.625 23.25 43.2084L22.75 39.3334C22.3889 39.1945 22.0489 39.0278 21.73 38.8334C21.41 38.6389 21.0972 38.4306 20.7917 38.2084L17.1667 39.7084C16.7778 39.8473 16.3889 39.8611 16 39.75C15.6111 39.6389 15.3055 39.4028 15.0833 39.0417L12 33.6667C11.7778 33.3056 11.7083 32.9167 11.7917 32.5C11.875 32.0834 12.0833 31.75 12.4167 31.5L15.5417 29.125C15.5139 28.9306 15.5 28.7428 15.5 28.5617V27.4367C15.5 27.2567 15.5139 27.0695 15.5417 26.875L12.4167 24.5C12.0833 24.25 11.875 23.9167 11.7917 23.5C11.7083 23.0834 11.7778 22.6945 12 22.3334L15.0833 16.9584C15.2778 16.5695 15.5761 16.3262 15.9783 16.2284C16.3817 16.1317 16.7778 16.1528 17.1667 16.2917L20.7917 17.7917C21.0972 17.5695 21.4167 17.3612 21.75 17.1667C22.0833 16.9723 22.4167 16.8056 22.75 16.6667L23.25 12.7917C23.3055 12.375 23.4861 12.0278 23.7917 11.75C24.0972 11.4723 24.4583 11.3334 24.875 11.3334H31.125C31.5417 11.3334 31.9028 11.4723 32.2083 11.75C32.5139 12.0278 32.6944 12.375 32.75 12.7917L33.25 16.6667C33.6111 16.8056 33.9517 16.9723 34.2717 17.1667C34.5905 17.3612 34.9028 17.5695 35.2083 17.7917L38.8333 16.2917C39.2222 16.1528 39.6111 16.1389 40 16.25C40.3889 16.3612 40.6944 16.5973 40.9167 16.9584L44 22.3334C44.2222 22.6945 44.2917 23.0834 44.2083 23.5C44.125 23.9167 43.9167 24.25 43.5833 24.5L40.4583 26.875C40.4861 27.0695 40.5 27.2567 40.5 27.4367V28.5617C40.5 28.7428 40.4722 28.9306 40.4167 29.125L43.5417 31.5C43.875 31.75 44.0833 32.0834 44.1667 32.5C44.25 32.9167 44.1805 33.3056 43.9583 33.6667L40.875 39C40.6528 39.3612 40.3405 39.6045 39.9383 39.73C39.535 39.8545 39.1389 39.8473 38.75 39.7084L35.2083 38.2084C34.9028 38.4306 34.5833 38.6389 34.25 38.8334C33.9167 39.0278 33.5833 39.1945 33.25 39.3334L32.75 43.2084C32.6944 43.625 32.5139 43.9723 32.2083 44.25C31.9028 44.5278 31.5417 44.6667 31.125 44.6667V44.6667ZM28.0833 33.8334C29.6944 33.8334 31.0694 33.2639 32.2083 32.125C33.3472 30.9862 33.9167 29.6112 33.9167 28C33.9167 26.3889 33.3472 25.0139 32.2083 23.875C31.0694 22.7362 29.6944 22.1667 28.0833 22.1667C26.4444 22.1667 25.0622 22.7362 23.9367 23.875C22.8122 25.0139 22.25 26.3889 22.25 28C22.25 29.6112 22.8122 30.9862 23.9367 32.125C25.0622 33.2639 26.4444 33.8334 28.0833 33.8334Z" fill="white"/>
</svg>
